<?xml version="1.0" encoding="UTF-8"?>
<svg id="Layer_1" xmlns="http://www.w3.org/2000/svg" version="1.1" viewBox="0 0 841.89 595.28">
  <!-- Generator: Adobe Illustrator 30.2.1, SVG Export Plug-In . SVG Version: 2.1.1 Build 1)  -->
  <defs>
    <style>
      .st0 {
        fill: #fff;
      }

      .st0, .st1 {
        fill-rule: evenodd;
      }

      .st1 {
        fill: #df231d;
      }
    </style>
  </defs>
  <g>
    <path class="st0" d="M697.65,307.8c-7.4-9.04-14.8-18.08-22.2-27.12-.62-.76-1.78-.57-2.44,0-30.55,26.39-67.91,46.81-105,62.17-34.53,14.31-71.24,23.52-108.61,25.64-39.34,2.23-79.62-2.12-117.81-11.61-67.77-16.87-128.13-54.27-175.03-105.75,12.11-12.15,25.32-23.3,38.71-33.96,28.69-22.8,60.25-43.31,94.82-55.92,70.68-25.78,147.85-32.96,220.75-12.77,16.92,4.69,33.42,11.17,49.52,18.1,37.32,16.09,73.89,36.9,102.65,65.99.77.77,2.18.64,2.71-.34,5.65-10.5,13.82-20.04,20.96-29.55.44-.59.25-1.62-.27-2.09-37.22-33.64-82.51-61.93-129.67-78.9-18.24-6.57-37.2-10.01-56.19-13.58-21.15-3.98-42.47-7.2-63.98-8.2-39.15-1.83-79.37,4.18-117.69,11.8-9.16,1.82-18.28,3.54-27.03,6.8-15.51,5.76-30.62,12.61-45.4,20.03-53.85,27-104.23,63.64-141.55,111.32-.62.81-.64,1.64,0,2.44,46.68,57.3,105.1,102.75,174.01,129.98,13.23,5.23,26.75,9.71,40.41,13.7,16.18,4.75,32.44,7.29,49.2,9.12,35.94,3.9,72.49,3.65,108.33-1.17,53.78-7.23,105.99-24.49,153.02-51.64,20.32-11.73,40.76-25.3,57.58-41.85.07-.06.13-.13.19-.19.71-.72.59-1.7,0-2.44Z"/>
    <path class="st0" d="M411.38,159.91c-.07-1.23-1.05-1.81-2.18-1.66-23.18,3.11-46.16,9.93-68.19,17.51-47.77,16.44-92.98,40.96-131.23,74.09-.41.35-.57.77-.56,1.16-.05.43.1.89.56,1.27,9.86,8.22,19.72,16.44,29.58,24.65.77.64,1.67.64,2.44,0,9.04-7.48,18.09-14.97,27.13-22.45,15.47,12.32,33.2,22.24,51.03,30.57,16.99,7.94,34.86,13.97,53.23,17.71,2.75.56,2.41,10.35,3.7,12.94.58,1.15,2.12,1.82,3.14,2.5,15.19,10.11,30.37,20.23,45.56,30.35.99.66,2.55.09,3.64-.11,4.21-.75,8.41-1.5,12.62-2.24,10.92-1.94,21.84-3.89,32.75-5.83,2.63-.47,5.26-.93,7.88-1.41.76-.13,1.24-.94,1.27-1.65.41-11.79.81-23.56,1.21-35.35,15.32-1.11,30.75-6.22,44.91-11.66,16.44-6.33,32.06-14.66,46.86-24.18,4.63-2.98,9.12-6.15,13.57-9.38,3.01-2.19,11.62,5.66,14.1,7.31,5.34,3.56,10.68,7.13,16.01,10.69.46.31,1.27.35,1.73,0,9.45-6.99,18.88-13.97,28.32-20.96.87-.64,1.2-1.87.34-2.7-10.45-10.18-22.49-18.98-34.48-27.22-28.3-19.44-59.49-34.68-92.25-44.92-9.58-3.01-18.1-7.47-27.43-11.06-6.14-2.38-12.66-3.31-19.17-2.24-9.87,1.6-17.87,9.75-22.95,17.84-12.08,19.25-12.92,45.18-12.34,67.19.24,9.01.87,18.1,2.16,27.04h-27.19c-1.93-39.27-3.85-78.53-5.76-117.8ZM375.47,208.88v55.74s-30.78-3.69-70.22-28.32c25.87-20.95,70.22-27.42,70.22-27.42ZM556.81,238.01c-39.08,24.65-69.59,28.35-69.59,28.35l.3-56.69s55.88,11.12,69.29,28.33Z"/>
    <polygon class="st1" points="304.53 65.72 317.32 194.32 432.69 176.74 339.23 424.7 454.05 446.93 526.13 95.34 304.53 65.72"/>
  </g>
  <g>
    <g>
      <path class="st0" d="M115.32,469h19.23c2.06,0,3.95.27,5.68.81,1.74.53,3.25,1.33,4.51,2.38,1.26,1.05,2.26,2.35,2.97,3.92.72,1.57,1.07,3.37,1.07,5.39,0,1.16-.21,2.3-.62,3.43-.41,1.13-.99,2.18-1.74,3.14-.75.96-1.62,1.83-2.64,2.57-1.02.75-2.12,1.33-3.32,1.74.5.23,1.02.55,1.54.96.52.41,1.01.93,1.46,1.52.46.59.87,1.28,1.25,2.04.38.76.67,1.58.9,2.45l2.56,10.06h3.99l.06,5.79h-8.99l-3.44-14.05c-.62-2.51-1.58-4.37-2.88-5.56-1.3-1.19-3.05-1.78-5.29-1.78h-5.94v16.15h4.63v5.24h-14.99v-5.24h4.39v-35.68h-4.39v-5.27ZM125.68,474.27v14.54h8.87c1.16,0,2.22-.15,3.18-.46.96-.3,1.8-.76,2.5-1.37.7-.61,1.25-1.37,1.65-2.27.4-.9.59-1.95.59-3.15,0-2.3-.69-4.08-2.07-5.36-1.39-1.28-3.58-1.92-6.58-1.92h-8.14Z"/>
      <path class="st0" d="M178.71,483.63h10.18v26.33h3.5v5.24h-9.2v-2.93c-1.42,1.1-2.97,1.95-4.65,2.56-1.68.61-3.47.91-5.38.91-1.58,0-3.02-.23-4.31-.69-1.3-.46-2.39-1.17-3.29-2.13-.9-.96-1.6-2.19-2.09-3.67-.49-1.48-.73-3.25-.73-5.3v-15.08h-4.27v-5.24h10.18v19.66c0,2.42.56,4.25,1.68,5.49,1.11,1.23,2.73,1.86,4.81,1.86,1.23,0,2.54-.23,3.92-.67,1.37-.44,2.67-1.07,3.89-1.86v-19.23h-4.24v-5.24Z"/>
      <path class="st0" d="M225.18,512.43c-1.04,1.1-2.24,1.95-3.61,2.56-1.37.61-2.93.91-4.68.91-2.13,0-4.11-.37-5.96-1.11-1.84-.75-3.43-1.83-4.78-3.26-1.36-1.43-2.41-3.18-3.17-5.27-.76-2.09-1.14-4.46-1.14-7.15,0-2.44.37-4.66,1.1-6.66.73-2,1.77-3.7,3.11-5.12,1.34-1.42,2.96-2.51,4.85-3.29,1.89-.78,3.99-1.17,6.31-1.17,1.58,0,3.02.18,4.28.53,1.26.35,2.5.98,3.7,1.84v-1.62h5.67v30.32c0,5-1.19,8.78-3.55,11.34-2.36,2.56-6.05,3.84-11.05,3.84-1.1,0-2.24-.08-3.44-.24-1.2-.17-2.38-.43-3.55-.78-1.17-.35-2.3-.81-3.41-1.36-1.11-.55-2.13-1.22-3.06-2.01l3.05-4.6c.61.53,1.31,1.02,2.09,1.46.78.44,1.62.82,2.51,1.14.9.32,1.81.56,2.77.75.96.18,1.9.27,2.86.27,1.57,0,2.93-.17,4.07-.49,1.14-.32,2.09-.9,2.83-1.72.75-.82,1.3-1.94,1.66-3.34.37-1.4.55-3.18.55-5.33v-.46ZM217.62,510.96c.93,0,1.78-.09,2.56-.27.78-.18,1.48-.43,2.1-.72.62-.29,1.19-.64,1.66-1.02.47-.38.88-.79,1.23-1.22v-17.28c-1.04-.91-2.22-1.57-3.58-1.98-1.36-.41-2.74-.61-4.16-.61-1.34,0-2.61.24-3.78.75-1.17.5-2.21,1.22-3.09,2.18-.88.96-1.58,2.12-2.09,3.5-.5,1.39-.76,2.97-.76,4.75,0,1.95.24,3.67.73,5.15.49,1.48,1.17,2.73,2.04,3.73.87,1.01,1.92,1.77,3.14,2.27,1.22.5,2.54.76,3.99.76Z"/>
      <path class="st0" d="M238.59,467.78h10.24v18.47c1.34-1.04,2.8-1.86,4.39-2.47,1.58-.61,3.21-.91,4.91-.91,2.07,0,3.98.38,5.7,1.16,1.72.78,3.21,1.86,4.46,3.26,1.25,1.4,2.22,3.08,2.91,5.04.69,1.97,1.04,4.13,1.04,6.51,0,2.54-.38,4.85-1.16,6.9-.78,2.06-1.84,3.84-3.21,5.32-1.37,1.48-3,2.62-4.89,3.43-1.89.81-3.96,1.2-6.22,1.2-1.57,0-3.03-.23-4.4-.69-1.37-.46-2.54-1.05-3.52-1.78v1.98h-5.67v-42.18h-4.57v-5.24ZM256.63,487.86c-1.48,0-2.91.3-4.27.91-1.36.61-2.54,1.43-3.53,2.47v16.97c.66.67,1.6,1.26,2.86,1.78,1.26.52,2.85.78,4.75.78,1.3,0,2.54-.24,3.75-.73,1.2-.49,2.26-1.22,3.17-2.21.91-.99,1.65-2.21,2.19-3.67.55-1.46.82-3.17.82-5.12,0-1.78-.26-3.37-.78-4.75-.52-1.39-1.22-2.54-2.1-3.5-.88-.96-1.92-1.68-3.09-2.18-1.17-.5-2.44-.75-3.78-.75Z"/>
      <path class="st0" d="M277.23,483.63h11.98v5.24h-3.75l7.41,20.14,7.74-20.14h-3.72v-5.24h11.98v5.24h-3.26l-14.05,35.44h4.33v5.24h-12.74v-5.24h3.84l3.35-8.68-10.54-26.76h-2.56v-5.24Z"/>
      <path class="st0" d="M359.96,509.96h3.84l-3.66-10.48h-17.77l-3.57,10.48h4.75v5.24h-14.99v-5.24h4.02l14.38-40.96h8.99l14.35,40.96h4.63v5.24h-14.99v-5.24ZM344.11,494.42h14.26l-7.19-20.66-7.07,20.66Z"/>
      <path class="st0" d="M379.54,483.63h10.06v3.69h.06c.69-.59,1.42-1.14,2.18-1.66.76-.52,1.55-.98,2.39-1.36.84-.38,1.71-.69,2.61-.91.9-.23,1.84-.34,2.82-.34,2.27,0,4.24.43,5.88,1.26,1.65.84,2.91,2.16,3.81,3.95.78-.69,1.58-1.36,2.44-2,.85-.64,1.74-1.19,2.67-1.66.93-.47,1.89-.84,2.91-1.13,1.02-.29,2.07-.43,3.17-.43,1.71,0,3.25.23,4.6.7,1.36.47,2.51,1.17,3.47,2.13.96.96,1.68,2.18,2.18,3.67s.75,3.26.75,5.29v15.11h4.39v5.24h-14.75v-5.24h4.45v-14.41c0-2.42-.61-4.25-1.83-5.5-1.22-1.25-2.97-1.87-5.27-1.87-1.36,0-2.76.32-4.17.98-1.42.66-2.64,1.48-3.66,2.47v18.34h4.36v5.24h-14.72v-5.24h4.45v-14.41c0-2.42-.61-4.25-1.84-5.5s-2.99-1.87-5.29-1.87c-1.33,0-2.65.32-3.99.94-1.34.62-2.61,1.42-3.81,2.35v18.5h4.45v5.24h-14.75v-5.24h4.39v-21.09h-4.39v-5.24Z"/>
      <path class="st0" d="M460.89,489.92c-.4-.59-.91-1.08-1.54-1.46-.62-.38-1.33-.66-2.1-.82-.78-.17-1.52-.26-2.26-.26-.81,0-1.55.09-2.24.27s-1.26.44-1.75.79c-.49.35-.87.76-1.14,1.26-.27.5-.41,1.05-.41,1.66,0,1.05.32,1.89.96,2.51.64.62,1.71,1.19,3.21,1.72l6.06,2.13c2.61.87,4.49,2.06,5.7,3.57,1.2,1.51,1.8,3.31,1.8,5.39,0,1.4-.27,2.68-.84,3.85-.56,1.17-1.36,2.16-2.38,2.99-1.02.82-2.26,1.46-3.7,1.92-1.45.46-3.05.69-4.81.69-2.45,0-4.46-.4-6-1.19-1.54-.79-2.73-1.84-3.57-3.14h-3.17v-5.24h6.31c0,.87.18,1.62.56,2.24.38.62.87,1.13,1.49,1.51.62.38,1.33.67,2.1.85.78.18,1.58.27,2.39.27s1.55-.09,2.29-.29c.73-.2,1.37-.47,1.94-.85.56-.38,1.01-.82,1.33-1.36.32-.53.49-1.13.49-1.8,0-1.02-.34-1.87-.99-2.59-.66-.72-1.78-1.36-3.37-1.92l-6.03-2.26c-2.45-.87-4.28-1.98-5.47-3.34-1.19-1.36-1.78-3.05-1.78-5.07,0-1.34.24-2.57.75-3.72.5-1.14,1.22-2.12,2.16-2.94.94-.82,2.1-1.46,3.46-1.94,1.36-.47,2.91-.7,4.66-.7,2.26,0,4.14.32,5.67.94,1.52.62,2.89,1.71,4.11,3.23h2.96v5.24h-6.25c0-.85-.2-1.58-.59-2.18Z"/>
      <path class="st0" d="M483.91,483.63h7.41v4.6h-7.47l-.09,18.22c0,1.23.14,2.24.43,3.02.29.78.75,1.31,1.37,1.6.62.29,1.34.44,2.13.44.85,0,1.6-.08,2.26-.23.66-.15,1.36-.41,2.13-.78l1.31,3.81c-.98.5-2,.91-3.08,1.2-1.08.29-2.35.44-3.81.44-1.39,0-2.59-.17-3.61-.5-1.02-.34-1.89-.9-2.59-1.69-.7-.79-1.22-1.86-1.57-3.18-.35-1.33-.52-2.99-.52-4.98l.09-17.37h-5.03v-4.6h5.09v-7.56l5.55-2.62v10.18Z"/>
      <path class="st0" d="M504.6,500.14c0,.9.06,1.71.2,2.45.14.75.32,1.45.56,2.12.75,2.03,1.95,3.57,3.61,4.59,1.66,1.02,3.53,1.54,5.62,1.54,1.65,0,3.25-.23,4.8-.69,1.55-.46,3.18-1.17,4.89-2.15l2.29,3.87c-2.07,1.42-4.16,2.48-6.25,3.17-2.09.69-4.27,1.04-6.52,1.04-2.13,0-4.11-.35-5.93-1.07-1.81-.72-3.38-1.77-4.69-3.17s-2.33-3.15-3.08-5.24c-.75-2.09-1.11-4.53-1.11-7.31,0-2.26.32-4.39.94-6.38.62-2,1.57-3.75,2.82-5.24,1.25-1.49,2.8-2.68,4.65-3.55,1.84-.87,4.01-1.31,6.46-1.31s4.36.37,5.96,1.08c1.6.72,2.89,1.68,3.9,2.86,1.01,1.19,1.77,2.54,2.29,4.07.52,1.52.88,3.08,1.08,4.66.11.78.17,1.55.2,2.35.03.79.05,1.57.05,2.32h-22.73ZM513.47,487.56c-1.33,0-2.47.18-3.46.56-.99.38-1.83.91-2.51,1.62-.69.7-1.25,1.55-1.66,2.57-.41,1.02-.73,2.15-.93,3.41h16.36c-.08-1.17-.27-2.27-.56-3.26-.29-.99-.75-1.86-1.36-2.59-.61-.73-1.39-1.3-2.35-1.71s-2.13-.61-3.53-.61Z"/>
      <path class="st0" d="M559,490.3h-5.79v-1.95c-.67,0-1.36.12-2.06.38-.7.26-1.36.64-1.97,1.16-.61.52-1.14,1.17-1.6,1.98-.46.81-.79,1.75-.99,2.85v15.24h5.36v5.24h-15.66v-5.24h4.36l.03-21.09h-4.39v-5.24h10.09v4.36c.37-.66.78-1.25,1.23-1.81.46-.56.96-1.05,1.52-1.46.56-.41,1.17-.75,1.86-.98.69-.23,1.42-.35,2.21-.35h2.99c.93,0,1.87.02,2.8.06v6.86Z"/>
      <path class="st0" d="M585.42,467.78h9.96v42.18h4.63v5.24h-10.3v-2.59c-1.02,1.04-2.19,1.84-3.53,2.42-1.34.58-2.86.87-4.57.87-2.13,0-4.11-.37-5.96-1.11-1.84-.75-3.43-1.83-4.78-3.26-1.36-1.43-2.41-3.18-3.17-5.27-.76-2.09-1.14-4.46-1.14-7.15,0-2.44.37-4.66,1.1-6.66.73-2,1.77-3.7,3.11-5.12,1.34-1.42,2.96-2.51,4.85-3.29,1.89-.78,3.99-1.17,6.31-1.17,1.52,0,2.91.17,4.17.5,1.26.34,2.47.91,3.63,1.75v-12.1h-4.3v-5.24ZM582.34,510.96c1.69,0,3.09-.24,4.24-.75,1.14-.5,2.18-1.25,3.14-2.24v-17.67c-1.02-.85-2.18-1.48-3.5-1.86-1.33-.38-2.67-.58-4.05-.58s-2.61.24-3.78.75c-1.17.5-2.21,1.22-3.09,2.18-.88.96-1.58,2.12-2.09,3.5s-.76,2.97-.76,4.75c0,1.95.24,3.67.73,5.15.49,1.48,1.17,2.73,2.04,3.73.87,1.01,1.92,1.77,3.14,2.27s2.54.76,3.99.76Z"/>
      <path class="st0" d="M625.25,512.27c-1.2,1.11-2.53,2.03-3.98,2.74-1.45.72-3.11,1.07-4.95,1.07-1.54,0-2.96-.24-4.25-.73-1.3-.49-2.41-1.16-3.34-2s-1.66-1.83-2.18-2.94c-.52-1.11-.78-2.3-.78-3.57,0-1.34.2-2.53.59-3.57.4-1.04.93-1.94,1.58-2.7.66-.76,1.43-1.4,2.32-1.92.88-.52,1.81-.93,2.77-1.25.96-.32,1.95-.53,2.96-.67,1.01-.14,1.97-.2,2.88-.2,1.46,0,2.7.05,3.69.14.99.09,1.9.21,2.71.38l.03-2.59c0-1.11-.17-2.09-.49-2.91-.32-.82-.78-1.51-1.37-2.04-.59-.53-1.3-.94-2.12-1.2-.82-.26-1.74-.4-2.76-.4-.96,0-1.87.06-2.74.2-.87.14-1.69.3-2.45.52-.76.21-1.46.46-2.1.73-.64.27-1.19.56-1.63.87l-1.86-3.93c.75-.49,1.57-.94,2.47-1.36.9-.41,1.83-.78,2.82-1.07.99-.29,2-.53,3.02-.7s2.04-.26,3.03-.26c1.83,0,3.47.21,4.94.66,1.46.44,2.7,1.11,3.72,2.03,1.02.91,1.8,2.07,2.35,3.49.55,1.42.82,3.11.82,5.07l-.03,15.79h3.5v5.24h-9.17v-2.93ZM617.57,511.33c.75,0,1.51-.09,2.26-.27.75-.18,1.46-.43,2.13-.75.67-.32,1.3-.69,1.86-1.1.56-.41,1.05-.85,1.43-1.3l.03-7.13h-6.58c-1.1,0-2.1.12-3,.37-.9.24-1.69.59-2.35,1.07-.66.47-1.17,1.05-1.54,1.74-.37.69-.55,1.48-.55,2.38,0,.84.15,1.55.46,2.18.3.62.73,1.14,1.3,1.55.56.41,1.22.73,2,.94.78.21,1.63.32,2.56.32Z"/>
      <path class="st0" d="M642.07,483.63h10.06v3.69h.06c.69-.59,1.42-1.14,2.18-1.66.76-.52,1.55-.98,2.39-1.36.84-.38,1.71-.69,2.61-.91s1.84-.34,2.82-.34c2.27,0,4.24.43,5.88,1.26,1.65.84,2.91,2.16,3.81,3.95.78-.69,1.58-1.36,2.44-2,.85-.64,1.74-1.19,2.67-1.66.93-.47,1.89-.84,2.91-1.13,1.02-.29,2.07-.43,3.17-.43,1.71,0,3.25.23,4.6.7,1.36.47,2.51,1.17,3.47,2.13.96.96,1.68,2.18,2.18,3.67s.75,3.26.75,5.29v15.11h4.39v5.24h-14.75v-5.24h4.45v-14.41c0-2.42-.61-4.25-1.83-5.5-1.22-1.25-2.97-1.87-5.27-1.87-1.36,0-2.76.32-4.17.98-1.42.66-2.64,1.48-3.66,2.47v18.34h4.36v5.24h-14.72v-5.24h4.45v-14.41c0-2.42-.61-4.25-1.84-5.5-1.23-1.25-2.99-1.87-5.29-1.87-1.33,0-2.65.32-3.99.94-1.34.62-2.61,1.42-3.81,2.35v18.5h4.45v5.24h-14.75v-5.24h4.39v-21.09h-4.39v-5.24Z"/>
    </g>
    <polygon class="st0" points="355.96 463.92 363.83 463.92 363.83 469.17 339.02 469.17 339.02 463.92 345.67 463.92 355.96 463.92"/>
  </g>
</svg>